<svg width="25" height="25" viewBox="0 0 25 25" fill="none" xmlns="http://www.w3.org/2000/svg">
<path d="M18.1008 0H6.89895C3.09487 0 0 3.09502 0 6.8991V18.1009C0 21.9051 3.09487 25 6.89895 25H18.1008C21.9051 25 25 21.905 25 18.1009V6.8991C25.0001 3.09502 21.9051 0 18.1008 0ZM22.782 18.1009C22.782 20.6821 20.6821 22.7819 18.1009 22.7819H6.89895C4.31794 22.782 2.21812 20.6821 2.21812 18.1009V6.8991C2.21812 4.31809 4.31794 2.21812 6.89895 2.21812H18.1008C20.6819 2.21812 22.7819 4.31809 22.7819 6.8991L22.782 18.1009Z" fill="white"/>
<path d="M12.3181 6C8.7339 6 5.81805 8.91591 5.81805 12.5001C5.81805 16.0842 8.7339 19 12.3181 19C15.9022 19 18.8181 16.0842 18.8181 12.5001C18.8181 8.91591 15.9022 6 12.3181 6ZM12.3181 16.7617C9.96816 16.7617 8.05619 14.8499 8.05619 12.5C8.05619 10.1499 9.96801 8.23804 12.3181 8.23804C14.6681 8.23804 16.5799 10.1499 16.5799 12.5C16.5799 14.8499 14.668 16.7617 12.3181 16.7617Z" fill="white"/>
<path d="M19.9107 4.32959C19.4678 4.32959 19.0327 4.50889 18.7199 4.82306C18.4056 5.1357 18.2249 5.57093 18.2249 6.01536C18.2249 6.45841 18.4058 6.8935 18.7199 7.20766C19.0326 7.5203 19.4678 7.70113 19.9107 7.70113C20.3551 7.70113 20.7888 7.5203 21.103 7.20766C21.4172 6.8935 21.5965 6.45826 21.5965 6.01536C21.5965 5.57093 21.4172 5.1357 21.103 4.82306C20.7904 4.50889 20.3551 4.32959 19.9107 4.32959Z" fill="white"/>
</svg>
