<svg width="22" height="22" viewBox="0 0 22 22" fill="none" xmlns="http://www.w3.org/2000/svg">
<path d="M4.42445 9.52111L7.11333 6.83222C7.45556 6.49 7.55333 6.01333 7.41889 5.58556C6.96667 4.21667 6.72222 2.75 6.72222 1.22222C6.72222 0.55 6.17222 0 5.5 0H1.22222C0.55 0 2.38419e-07 0.55 2.38419e-07 1.22222C2.38419e-07 12.6989 9.30111 22 20.7778 22C21.45 22 22 21.45 22 20.7778V16.5122C22 15.84 21.45 15.29 20.7778 15.29C19.2622 15.29 17.7833 15.0456 16.4144 14.5933C15.9867 14.4467 15.4978 14.5567 15.1678 14.8867L12.4789 17.5756C9.02 15.8033 6.18445 12.98 4.42445 9.52111Z" fill="black"/>
</svg>
