<svg width="16" height="14" viewBox="0 0 16 14" fill="none" xmlns="http://www.w3.org/2000/svg">
<path fill-rule="evenodd" clip-rule="evenodd" d="M14.8438 0.0477154L0.677229 5.51272C0.327984 5.64747 0.330664 6.14259 0.68135 6.27353L4.1331 7.56203L5.46929 11.8589C5.5549 12.134 5.89158 12.2355 6.11493 12.0534L8.03907 10.4848C8.24078 10.3203 8.5278 10.3123 8.73838 10.4652L12.2091 12.985C12.448 13.1585 12.7864 13.0276 12.8465 12.7386L15.3885 0.509975C15.4542 0.194625 15.1444 -0.0682871 14.8438 0.0477154ZM6.57461 8.0829L12.1423 2.9076C12.2465 2.81076 12.1215 2.64665 12.0005 2.72113L5.25418 6.87641C4.99529 7.03589 4.87393 7.34815 4.95717 7.64063L5.68656 10.2033C5.73828 10.3852 6.00212 10.3664 6.02736 10.1789L6.21682 8.77356C6.25257 8.5089 6.37897 8.26474 6.57461 8.0829Z" fill="white"/>
</svg>
